<?xml version="1.0" standalone="no"?>
<!DOCTYPE svg PUBLIC "-//W3C//DTD SVG 20010904//EN"
 "http://www.w3.org/TR/2001/REC-SVG-20010904/DTD/svg10.dtd">
<svg version="1.0" xmlns="http://www.w3.org/2000/svg"
 width="1024.000000pt" height="1024.000000pt" viewBox="0 0 1024.000000 1024.000000"
 preserveAspectRatio="xMidYMid meet">

<g transform="translate(0.000000,1024.000000) scale(0.100000,-0.100000)"
fill="#000000" stroke="none">
<path d="M4820 9209 c-586 -64 -1098 -276 -1535 -634 -138 -114 -353 -338
-458 -478 -294 -391 -475 -816 -549 -1288 -19 -123 -22 -184 -22 -424 0 -242
3 -300 22 -424 49 -308 138 -591 274 -862 396 -793 1143 -1368 1998 -1539 227
-45 325 -54 585 -54 194 1 268 5 385 23 445 67 816 208 1178 448 718 475 1177
1219 1278 2068 18 151 20 493 4 635 -74 662 -350 1242 -809 1701 -440 440
-998 718 -1636 815 -120 19 -588 27 -715 13z m723 -238 c282 -46 518 -121 773
-245 828 -406 1368 -1193 1454 -2121 44 -473 -55 -990 -271 -1416 -131 -258
-278 -459 -499 -679 -155 -156 -280 -259 -440 -363 -805 -523 -1818 -570
-2666 -121 -212 111 -409 252 -574 409 -502 477 -778 1035 -841 1699 -14 157
-6 501 15 636 89 556 328 1035 716 1434 406 417 921 680 1500 766 189 28 197
28 465 25 184 -2 270 -8 368 -24z"/>
<path d="M4810 8319 c-157 -54 -555 -192 -885 -307 l-600 -208 0 -779 c0 -710
2 -790 18 -889 84 -498 349 -989 747 -1386 149 -149 276 -253 464 -378 147
-98 495 -278 557 -288 30 -5 58 5 181 64 345 165 596 341 859 602 316 313 528
650 659 1050 106 321 112 388 108 1285 l-3 720 -355 122 c-793 273 -1441 493
-1453 492 -7 -1 -140 -45 -297 -100z m419 -504 c94 -22 194 -79 265 -151 206
-205 221 -527 36 -749 -169 -201 -431 -256 -670 -138 -181 88 -309 295 -310
499 0 70 33 193 72 267 111 209 374 327 607 272z m1459 -1307 c171 -166 176
-189 73 -305 -38 -43 -429 -437 -868 -875 -733 -733 -801 -798 -831 -798 -18
0 -45 6 -60 14 -15 8 -213 201 -439 428 l-413 414 0 43 c0 43 3 48 122 168
103 103 127 123 152 123 27 0 68 -37 316 -285 245 -244 290 -285 315 -285 26
0 122 92 750 720 845 844 744 772 883 638z m-1803 21 c84 -31 98 -33 215 -33
119 0 130 2 235 38 124 43 168 43 300 6 135 -38 339 -158 379 -223 9 -15 -56
-84 -469 -497 -264 -264 -484 -480 -489 -480 -5 0 -112 105 -238 234 -190 195
-239 240 -290 265 -93 47 -168 38 -240 -27 -40 -36 -43 -37 -111 -34 -121 4
-147 30 -147 147 1 138 66 270 200 405 93 94 170 146 276 186 163 62 239 64
379 13z"/>
<path d="M1800 2205 l0 -486 80 3 79 3 3 210 c4 230 12 266 69 308 40 29 107
33 147 7 56 -35 62 -63 62 -310 l0 -220 85 0 85 0 0 238 c0 266 -8 316 -61
376 -39 45 -108 71 -184 70 -70 -1 -117 -19 -169 -64 l-37 -33 3 192 3 191
-82 0 -83 0 0 -485z"/>
<path d="M3990 2205 l0 -485 80 0 80 0 0 106 0 107 37 41 c21 22 41 41 46 41
5 0 46 -65 91 -145 l82 -145 97 -3 c53 -1 97 -1 97 0 0 2 -56 98 -124 213
l-125 209 82 90 c44 50 94 106 111 124 l30 32 -90 0 -89 0 -120 -137 -120
-136 -3 286 -2 287 -80 0 -80 0 0 -485z"/>
<path d="M1217 2639 c-114 -27 -210 -107 -269 -226 -41 -83 -42 -87 -46 -207
-3 -96 -1 -136 13 -182 46 -161 161 -272 317 -305 71 -16 191 -6 259 20 105
40 189 138 205 240 l7 41 -85 0 -85 0 -7 -31 c-8 -42 -72 -104 -121 -118 -89
-24 -170 -9 -232 44 -78 66 -112 188 -93 326 25 173 106 258 248 259 98 0 180
-54 197 -130 l7 -30 84 0 84 0 0 38 c0 99 -101 216 -217 252 -69 21 -195 26
-266 9z"/>
<path d="M7426 2634 c-64 -20 -137 -93 -159 -159 -29 -84 -28 -85 63 -85 66 0
80 3 80 15 0 29 30 75 60 90 16 8 51 15 77 15 124 0 184 -123 104 -213 -27
-29 -34 -32 -105 -35 l-76 -4 0 -69 0 -69 60 0 c72 0 119 -17 149 -56 31 -39
26 -122 -10 -160 -48 -53 -130 -69 -194 -38 -39 18 -59 45 -69 92 l-8 32 -80
0 -81 0 7 -42 c16 -97 72 -174 156 -212 68 -31 235 -30 305 2 99 46 154 123
163 229 8 108 -46 200 -129 218 l-33 7 30 15 c81 42 120 116 111 211 -8 98
-49 158 -137 203 -58 30 -209 37 -284 13z"/>
<path d="M8250 2637 c-124 -35 -214 -138 -255 -293 -9 -32 -19 -113 -22 -179
-8 -190 26 -299 123 -384 55 -49 118 -71 199 -71 86 0 146 23 209 81 75 69
101 129 100 239 0 94 -16 138 -76 206 -89 101 -269 114 -360 27 -34 -32 -35
-24 -12 76 19 87 65 145 127 162 55 15 147 5 198 -22 26 -13 45 -17 51 -11 5
5 8 40 6 77 l-3 68 -40 14 c-56 20 -190 26 -245 10z m115 -471 c55 -24 77 -68
73 -152 -3 -60 -8 -77 -32 -108 -55 -72 -136 -82 -202 -24 -18 16 -38 45 -45
65 -16 49 -7 138 18 171 41 56 120 76 188 48z"/>
<path d="M8933 2634 c-84 -31 -174 -136 -205 -239 -18 -63 -28 -225 -18 -324
22 -229 121 -349 300 -359 60 -3 87 0 131 17 67 26 139 96 170 168 61 140 65
397 8 548 -24 65 -96 148 -153 177 -54 28 -174 34 -233 12z m182 -167 c43 -43
64 -115 72 -242 13 -227 -44 -365 -149 -365 -58 0 -95 26 -126 90 -26 53 -27
61 -27 220 0 193 13 249 71 300 28 24 44 30 80 30 39 0 51 -5 79 -33z"/>
<path d="M4690 2180 l0 -460 300 0 300 0 0 80 0 80 -215 0 -215 0 0 110 0 110
190 0 190 0 0 78 0 77 -187 0 -188 0 -3 113 -3 112 211 0 210 0 0 80 0 80
-295 0 -295 0 0 -460z"/>
<path d="M2783 2400 c-96 -20 -178 -86 -221 -179 -37 -81 -43 -213 -13 -304
44 -132 135 -198 281 -205 141 -7 243 45 296 149 13 27 24 51 24 54 0 3 -36 5
-81 5 -76 0 -83 -2 -102 -26 -43 -56 -139 -71 -197 -31 -38 25 -65 66 -75 115
l-7 32 236 0 236 0 0 64 c0 169 -84 288 -227 322 -64 15 -88 16 -150 4z m163
-162 c22 -21 37 -47 41 -71 l6 -37 -147 0 c-165 0 -165 0 -123 75 47 83 157
100 223 33z"/>
<path d="M3505 2397 c-151 -40 -235 -149 -243 -318 -11 -229 108 -369 314
-369 146 0 265 93 298 233 l6 27 -84 0 c-83 0 -84 0 -91 -27 -17 -69 -81 -111
-152 -100 -54 9 -83 34 -110 93 -21 47 -25 67 -21 132 6 129 62 202 155 202
60 0 98 -22 120 -70 l18 -39 83 -1 84 0 -7 33 c-10 46 -49 110 -87 143 -73 61
-186 86 -283 61z"/>
<path d="M5705 2401 c-41 -10 -75 -29 -107 -59 l-28 -26 0 37 0 37 -80 0 -80
0 0 -335 0 -335 85 0 85 0 0 225 c0 245 3 263 56 304 45 35 138 20 160 -26 5
-10 11 -126 14 -258 l5 -240 83 -3 82 -3 0 213 c0 117 5 230 10 250 32 113
189 120 220 10 5 -20 10 -135 10 -254 l0 -218 86 0 86 0 -4 263 c-3 253 -4
264 -27 311 -63 128 -260 154 -365 48 l-39 -39 -35 39 c-50 55 -135 78 -217
59z"/>
<path d="M6815 2401 c-44 -11 -76 -29 -112 -64 l-33 -31 0 42 0 42 -75 0 -75
0 0 -472 0 -473 80 0 80 0 0 174 0 174 23 -21 c98 -92 290 -80 375 24 58 70
76 133 76 269 1 104 -2 127 -22 171 -27 60 -92 127 -144 148 -45 19 -133 28
-173 17z m102 -151 c54 -32 78 -91 78 -190 0 -94 -21 -150 -71 -189 -82 -65
-204 -12 -235 101 -16 61 -7 178 17 219 44 75 141 102 211 59z"/>
</g>
</svg>
